<svg id="Layer_1" data-name="Layer 1" xmlns="http://www.w3.org/2000/svg" xmlns:xlink="http://www.w3.org/1999/xlink" viewBox="0 0 130 30"><defs><style>.cls-1{fill:url(#linear-gradient);}.cls-2{fill:url(#linear-gradient-2);}.cls-3{fill:url(#linear-gradient-3);}.cls-4{fill:url(#linear-gradient-4);}.cls-5{fill:#231f20;}</style><linearGradient id="linear-gradient" x1="-4.65" y1="4.5" x2="10.78" y2="4.5" gradientTransform="matrix(1, 0, 0, -1, -0.5, 27.31)" gradientUnits="userSpaceOnUse"><stop offset="0" stop-color="#fff"/><stop offset="1" stop-color="#37bcaf"/></linearGradient><linearGradient id="linear-gradient-2" x1="-8.81" y1="19.5" x2="6.63" y2="19.5" gradientTransform="matrix(1, 0, 0, -1, -0.5, 27.31)" gradientUnits="userSpaceOnUse"><stop offset="0" stop-color="#fff"/><stop offset="1" stop-color="#479fd7"/></linearGradient><linearGradient id="linear-gradient-3" x1="10.9" y1="4.5" x2="26.34" y2="4.5" gradientTransform="matrix(1, 0, 0, -1, -0.5, 27.31)" gradientUnits="userSpaceOnUse"><stop offset="0" stop-color="#fff"/><stop offset="1" stop-color="#97c93e"/></linearGradient><linearGradient id="linear-gradient-4" x1="11.26" y1="19.5" x2="26.69" y2="19.5" gradientTransform="matrix(1, 0, 0, -1, -0.5, 27.31)" gradientUnits="userSpaceOnUse"><stop offset="0" stop-color="#fff"/><stop offset="1" stop-color="#ffc727"/></linearGradient></defs><path class="cls-1" d="M14.91,15.31v15h0a15.2,15.2,0,0,1-15.43-15v0Z" transform="translate(0.52 -0.31)"/><path class="cls-2" d="M14.91,15.31H-.52V.31h0a15.21,15.21,0,0,1,15.43,15Z" transform="translate(0.52 -0.31)"/><path class="cls-3" d="M30.34,15.31h0a15.21,15.21,0,0,1-15.41,15h0a15.22,15.22,0,0,1,15.43-15Z" transform="translate(0.52 -0.31)"/><path class="cls-4" d="M30.34,15.31h0A15.22,15.22,0,0,1,14.91.31h0a15.2,15.2,0,0,1,15.43,15Z" transform="translate(0.52 -0.31)"/><path class="cls-5" d="M50.39,16.66a8.86,8.86,0,0,1-.52,3.1A6.38,6.38,0,0,1,46,23.63a9.43,9.43,0,0,1-3.25.53,12.32,12.32,0,0,1-1.57-.07c-.56-.07-1.1-.11-1.62-.18s-1-.15-1.52-.26-.92-.2-1.29-.31V3.39l4.16-.66V9.84a7.8,7.8,0,0,1,1.43-.41,8,8,0,0,1,1.62-.16,7.08,7.08,0,0,1,2.77.53,5.53,5.53,0,0,1,2,1.5A6.71,6.71,0,0,1,50,13.65,10.25,10.25,0,0,1,50.39,16.66Zm-4.25-.11q0-3.92-3-3.91a4.91,4.91,0,0,0-1.27.15,3.89,3.89,0,0,0-1,.41v7.36c.21,0,.46.07.79.1s.65,0,1,0a3,3,0,0,0,2.57-1.15,4.74,4.74,0,0,0,.84-3Z" transform="translate(0.52 -0.31)"/><path class="cls-5" d="M58.12,5.39a2.2,2.2,0,0,1-.75,1.76,2.71,2.71,0,0,1-3.49,0,2.18,2.18,0,0,1-.73-1.76,2.18,2.18,0,0,1,.73-1.75,2.71,2.71,0,0,1,3.49,0A2.2,2.2,0,0,1,58.12,5.39ZM57.73,23.8H53.56V9.52h4.17Z" transform="translate(0.52 -0.31)"/><path class="cls-5" d="M65.8,14.64l1.27-1.29L68.34,12c.4-.46.8-.89,1.16-1.31l.93-1.08h4.95q-1.48,1.66-2.89,3.15c-.94,1-2,2-3.09,3.11a16.81,16.81,0,0,1,1.73,1.75c.6.68,1.18,1.38,1.74,2.11s1.07,1.45,1.53,2.17.86,1.4,1.18,2H70.79l-1-1.56c-.37-.59-.78-1.15-1.21-1.72a19.27,19.27,0,0,0-1.35-1.64,11.17,11.17,0,0,0-1.41-1.34v6.26H61.64V3.39l4.16-.66Z" transform="translate(0.52 -0.31)"/><path class="cls-5" d="M90.55,16.63a8.78,8.78,0,0,1-.5,3.09,6.7,6.7,0,0,1-1.46,2.39,6.55,6.55,0,0,1-2.27,1.53,8.28,8.28,0,0,1-5.92,0,6.68,6.68,0,0,1-2.28-1.53,7,7,0,0,1-1.52-2.39,8.6,8.6,0,0,1-.54-3.09,8.24,8.24,0,0,1,.55-3.06,7.15,7.15,0,0,1,1.51-2.37,6.77,6.77,0,0,1,2.29-1.51,8,8,0,0,1,5.82,0A6.59,6.59,0,0,1,88.5,11.2,7.25,7.25,0,0,1,90,13.57,8.68,8.68,0,0,1,90.55,16.63Zm-4.24,0a5,5,0,0,0-.77-2.94,2.53,2.53,0,0,0-2.2-1.06,2.58,2.58,0,0,0-2.21,1.06,5,5,0,0,0-.77,2.94,5.07,5.07,0,0,0,.77,2.94,2.6,2.6,0,0,0,2.21,1.1,2.54,2.54,0,0,0,2.2-1.1A5.09,5.09,0,0,0,86.31,16.63Z" transform="translate(0.52 -0.31)"/><path class="cls-5" d="M101.8,16.23a5.31,5.31,0,0,0-.52-2.77,1.91,1.91,0,0,0-1.78-.81,5.34,5.34,0,0,0-.8,0l-.81.09V23.8H93.74V10c.35-.09.76-.19,1.24-.28s1-.2,1.51-.28,1.07-.15,1.63-.19,1.11-.06,1.64-.06a7.14,7.14,0,0,1,2.6.39,6.15,6.15,0,0,1,1.63,1,7,7,0,0,1,2-1,7.36,7.36,0,0,1,2.13-.35,7.29,7.29,0,0,1,2.89.47,4.28,4.28,0,0,1,1.86,1.3,5.17,5.17,0,0,1,.93,2.07,13.17,13.17,0,0,1,.25,2.66V23.8h-4.16V16.23a5.42,5.42,0,0,0-.53-2.77,1.91,1.91,0,0,0-1.77-.81,3.62,3.62,0,0,0-.93.15,3.89,3.89,0,0,0-1,.41,5.92,5.92,0,0,1,.25,1.32c0,.46.07,1,.07,1.48v7.83H101.8Z" transform="translate(0.52 -0.31)"/><path class="cls-5" d="M123.12,9.14a10,10,0,0,1,3,.41,4.83,4.83,0,0,1,2,1.16,4.31,4.31,0,0,1,1,1.85,9,9,0,0,1,.3,2.42v8.41q-.89.2-2.49.45a24.74,24.74,0,0,1-3.85.26,11.82,11.82,0,0,1-2.58-.25,5.41,5.41,0,0,1-2-.8,3.51,3.51,0,0,1-1.28-1.45,4.89,4.89,0,0,1-.45-2.19,4.14,4.14,0,0,1,.52-2.12,3.91,3.91,0,0,1,1.38-1.39,6.5,6.5,0,0,1,2-.75,11.33,11.33,0,0,1,2.32-.22,10.71,10.71,0,0,1,1.44.06,6.87,6.87,0,0,1,1,.17v-.37a2.22,2.22,0,0,0-.64-1.66,3.2,3.2,0,0,0-2.24-.62,16.46,16.46,0,0,0-2.1.14,9.83,9.83,0,0,0-1.78.43l-.54-3.26a9.32,9.32,0,0,1,.91-.23c.37-.08.77-.16,1.19-.22s.89-.11,1.36-.16A14.46,14.46,0,0,1,123.12,9.14ZM123.47,21h1.17a6.54,6.54,0,0,0,.89-.09V17.8l-.75-.11c-.34,0-.65-.05-.93-.05a8,8,0,0,0-1.1.07,2.7,2.7,0,0,0-.91.26,1.45,1.45,0,0,0-.61.51,1.34,1.34,0,0,0-.22.82,1.35,1.35,0,0,0,.65,1.31A3.63,3.63,0,0,0,123.47,21Z" transform="translate(0.52 -0.31)"/></svg>