<?xml version="1.0" encoding="utf-8"?>
<!-- Generator: Adobe Illustrator 24.1.1, SVG Export Plug-In . SVG Version: 6.00 Build 0)  -->
<svg version="1.1" id="Layer_1" xmlns="http://www.w3.org/2000/svg" xmlns:xlink="http://www.w3.org/1999/xlink" x="0px" y="0px"
	 viewBox="0 0 140 40.16" style="enable-background:new 0 0 140 40.16;" xml:space="preserve">
<style type="text/css">
	.st0{fill:#057DC1;}
	.st1{fill:#224292;}
	.st2{fill:#7D4298;}
	.st3{fill:#A34498;}
	.st4{fill:#EE4035;}
	.st5{fill:#F16624;}
	.st6{fill:#F89E1E;}
	.st7{fill:#2EAAE1;}
	.st8{opacity:0.1;}
	.st9{fill:#231F20;}
</style>
<g>
	<g>
		<polygon class="st0" points="27.18,23.51 27.18,0.09 38.44,11.8 		"/>
		<polygon class="st1" points="22.51,28.36 38.43,11.79 38.43,28.36 		"/>
		<polygon class="st2" points="15.92,28.35 38.43,28.35 27.18,40.06 		"/>
		<polygon class="st3" points="11.26,23.49 27.18,40.05 11.26,40.05 		"/>
		<polygon class="st4" points="11.26,16.63 11.26,40.05 0,28.34 		"/>
		<polygon class="st5" points="15.93,11.79 0.01,28.35 0.01,11.79 		"/>
		<polygon class="st6" points="22.52,11.79 0.01,11.79 11.26,0.08 		"/>
		<polygon class="st7" points="27.18,16.65 11.26,0.09 27.18,0.09 		"/>
		<g class="st8">
			<polygon points="27.18,23.52 38.44,11.81 36.98,10.3 			"/>
			<polygon points="22.49,28.38 38.41,28.38 38.41,26.24 			"/>
			<polygon points="15.92,28.35 27.18,40.06 28.63,38.54 			"/>
			<polygon points="11.26,23.53 11.27,40.08 13.22,40.08 			"/>
			<polygon points="11.26,16.65 0.01,28.36 1.39,29.8 			"/>
			<polygon points="15.93,11.81 0.01,11.83 0.01,13.86 			"/>
			<polygon points="22.52,11.79 11.26,0.09 9.88,1.53 			"/>
			<polygon points="27.19,16.65 27.19,0.09 25.13,0.09 			"/>
		</g>
	</g>
	<g>
		<path class="st9" d="M46.46,32.69c0.88,0.1,1.76-0.16,2.44-0.73c0.57-0.73,0.84-1.66,0.75-2.58V4.59h3.79v25.64
			c0.14,1.6-0.36,3.2-1.39,4.44c-1.13,1.01-2.62,1.52-4.13,1.41h-1.05L46.46,32.69z"/>
		<path class="st9" d="M63.26,28.75c-1.82-1.1-3.3-2.7-4.26-4.6c-1.07-2.15-1.6-4.52-1.55-6.92c-0.05-2.39,0.48-4.77,1.55-6.91
			c0.96-1.9,2.43-3.5,4.25-4.61c3.84-2.16,8.52-2.16,12.36,0c1.83,1.1,3.3,2.7,4.26,4.61c1.07,2.14,1.59,4.52,1.54,6.91
			c0.05,2.4-0.47,4.77-1.54,6.92c-0.96,1.9-2.43,3.5-4.26,4.6C71.78,30.92,67.08,30.92,63.26,28.75L63.26,28.75z M73.8,25.34
			c1.2-0.82,2.13-1.98,2.69-3.32c0.62-1.52,0.93-3.15,0.91-4.79c0.02-1.64-0.29-3.26-0.91-4.78C75.94,11.1,75,9.94,73.8,9.13
			c-2.68-1.61-6.03-1.61-8.71,0c-1.21,0.82-2.15,1.97-2.71,3.32c-0.64,1.51-0.95,3.14-0.92,4.78c-0.03,1.64,0.28,3.27,0.92,4.79
			c0.56,1.35,1.5,2.5,2.71,3.32C67.77,26.95,71.12,26.95,73.8,25.34z"/>
		<path class="st9" d="M88.07,29.85c-1.24-0.26-2.45-0.66-3.59-1.21L85,24.49c1.28,0.64,2.62,1.17,4,1.57
			c1.35,0.41,2.75,0.62,4.16,0.63c1.19,0.07,2.38-0.22,3.41-0.83c0.82-0.57,1.28-1.53,1.21-2.53c0.03-0.74-0.19-1.47-0.64-2.07
			c-0.5-0.6-1.14-1.08-1.86-1.39c-1.15-0.52-2.34-0.98-3.54-1.37c-1.31-0.42-2.58-0.96-3.8-1.61c-0.98-0.54-1.82-1.32-2.43-2.26
			c-0.65-1.06-0.97-2.29-0.92-3.54c-0.06-1.95,0.78-3.82,2.27-5.07c1.85-1.39,4.13-2.07,6.44-1.93c1.39,0,2.78,0.16,4.13,0.49
			c1.23,0.28,2.42,0.69,3.57,1.21l-0.42,4.08c-1.22-0.66-2.5-1.2-3.83-1.61c-1.19-0.35-2.42-0.52-3.66-0.52
			c-1.16-0.07-2.32,0.21-3.33,0.79c-0.82,0.53-1.29,1.46-1.22,2.43c-0.02,0.67,0.18,1.33,0.59,1.86c0.45,0.54,1.01,0.97,1.65,1.25
			c0.98,0.44,1.98,0.83,3,1.15c2.23,0.6,4.31,1.66,6.11,3.11c1.36,1.26,2.09,3.06,2,4.91c0.05,1.97-0.77,3.86-2.24,5.16
			c-1.49,1.35-3.9,2-7.21,2C90.97,30.38,89.5,30.19,88.07,29.85z"/>
		<path class="st9" d="M105.69,4.59h15.14v3.69h-11.32v6.53h8.89v3.69h-8.89v7.69h11.64v3.68h-15.46V4.59z"/>
		<path class="st9" d="M125.14,4.59H140v3.69h-11.08v6.53h8.55v3.69h-8.55v11.37h-3.78V4.59z"/>
	</g>
</g>
</svg>
