<svg id="Layer_1" data-name="Layer 1" xmlns="http://www.w3.org/2000/svg" xmlns:xlink="http://www.w3.org/1999/xlink" viewBox="0 0 120 40"><defs><style>.cls-1{fill:url(#linear-gradient);}.cls-2{fill:#231f20;}.cls-3{fill:url(#linear-gradient-2);}.cls-4{fill:url(#linear-gradient-3);}</style><linearGradient id="linear-gradient" x1="7.64" y1="-3.16" x2="44.74" y2="50.02" gradientTransform="matrix(1, 0, 0, -1, -6.34, 40)" gradientUnits="userSpaceOnUse"><stop offset="0" stop-color="#55489c"/><stop offset="1" stop-color="#ee5690"/></linearGradient><linearGradient id="linear-gradient-2" x1="84.52" y1="22" x2="95.3" y2="22" xlink:href="#linear-gradient"/><linearGradient id="linear-gradient-3" x1="101.02" y1="22" x2="105.62" y2="22" xlink:href="#linear-gradient"/></defs><path class="cls-1" d="M31.79,0H7.44C4.52,0,2,1.77,2,4.7V22.08L9.84,10.91h4.51L.15,32.12H6L22.69,7.88H27.2L5.15,40h6.19L25.56,18.79h4.5L19.4,34.55H31.79A5.38,5.38,0,0,0,37,29.11V4.7C37,1.77,34.72,0,31.79,0Z" transform="translate(-0.15)"/><path class="cls-2" d="M59.45,27.37a9.2,9.2,0,0,1-4.39,1.08,10.69,10.69,0,0,1-7.82-2.9A10.48,10.48,0,0,1,44.14,18a10.49,10.49,0,0,1,3.1-7.52,10.59,10.59,0,0,1,7.43-2.89A11.78,11.78,0,0,1,59.45,8.7V14a6.29,6.29,0,0,0-4.65-2.13,5.58,5.58,0,0,0-4.06,1.56A6.41,6.41,0,0,0,48.86,18a5.85,5.85,0,0,0,5.61,6.07h.37a6.26,6.26,0,0,0,4.56-2.06Z" transform="translate(-0.15)"/><path class="cls-2" d="M74.83,24.23H67.3L65.79,28H61L69,8h4.21L81.1,28H76.32Zm-1.2-3.53L71.12,14l-2.48,6.7Z" transform="translate(-0.15)"/><path class="cls-3" d="M87.93,8V24.11h6.19V28H83.33V8Z" transform="translate(-0.15)"/><path class="cls-4" d="M101.4,8V28H96.8V8Z" transform="translate(-0.15)"/><path class="cls-2" d="M111.93,8c1.08,0,3.52.06,5.08,1.53a5.18,5.18,0,0,1,1.44,3.77,4.82,4.82,0,0,1-.66,2.54,3.69,3.69,0,0,1-1.68,1.47,5.27,5.27,0,0,1,2.76,1.34,4.93,4.93,0,0,1,1.27,3.57,5.5,5.5,0,0,1-1.54,4,7.56,7.56,0,0,1-5.26,1.7h-7.49V8Zm-1.54,8.11h.74a4.23,4.23,0,0,0,2.33-.57,2.11,2.11,0,0,0,.81-1.76,2,2,0,0,0-.78-1.68,3.78,3.78,0,0,0-2.39-.51h-.71Zm0,8.26h1.14c1.17,0,2.58,0,3.41-.81a2.22,2.22,0,0,0,.65-1.67,2.18,2.18,0,0,0-.62-1.62c-.8-.75-2.36-.75-3.29-.75h-1.24Z" transform="translate(-0.15)"/></svg>