<?xml version="1.0" encoding="utf-8"?>
<!-- Generator: Adobe Illustrator 24.1.1, SVG Export Plug-In . SVG Version: 6.00 Build 0)  -->
<svg version="1.1" id="Layer_1" xmlns="http://www.w3.org/2000/svg" xmlns:xlink="http://www.w3.org/1999/xlink" x="0px" y="0px"
	 viewBox="0 0 140 35" style="enable-background:new 0 0 140 35;" xml:space="preserve">
<style type="text/css">
	.st0{fill:url(#SVGID_1_);}
	.st1{fill:#231F20;}
	.st2{fill:url(#SVGID_2_);}
	.st3{fill:url(#SVGID_3_);}
</style>
<linearGradient id="SVGID_1_" gradientUnits="userSpaceOnUse" x1="5.2596" y1="47.6603" x2="28.94" y2="6.9296" gradientTransform="matrix(1 0 0 1 0 -6.5)">
	<stop  offset="0" style="stop-color:#E42689"/>
	<stop  offset="1" style="stop-color:#FCB62A"/>
</linearGradient>
<path class="st0" d="M37.75,3.28C36.2-1.6,28.6-0.9,19.87,4.5l0.91,0.62c7.15-4.32,13.07-5.3,14.14-1.94c0.78,2.46-1.23,6.7-5,11.19
	c-2.35-2.57-4.93-4.91-7.71-7C11.91-0.5,2.07-2.35,0.28,3.28c-1.08,3.41,1,8.77,5.19,14.22C1.32,22.94-0.8,28.31,0.28,31.72
	c1.6,5,9.65,4.13,18.74-1.75c9.09,5.88,17.13,6.79,18.73,1.75c1.09-3.41-1-8.78-5.19-14.22C36.71,12.05,38.84,6.69,37.75,3.28z
	 M3.12,3.17c1.1-3.49,7.46-2.3,15,2.47c-0.77,0.52-1.54,1.07-2.32,1.67c-2.78,2.09-5.36,4.43-7.7,7C4.35,9.87,2.33,5.63,3.12,3.17z
	 M2,28.19c-0.72-2.25,0.9-6,4-10c2.61,3.27,5.59,6.22,8.87,8.81C8.27,30.67,3,31.35,2,28.19z M36.11,28.19
	c-1.29,4.07-9.71,1.81-18.82-5.14c-3.13-2.37-6.02-5.05-8.61-8c2.29-2.45,4.78-4.7,7.46-6.72c1-0.75,2-1.44,2.92-2.08
	c1,0.64,1.93,1.33,2.91,2.08c2.68,2.02,5.17,4.27,7.46,6.72c-2.59,2.95-5.48,5.63-8.61,8l-0.76,0.57c1.33,0.94,2.71,1.79,4.13,2.57
	c2.9-2.39,5.55-5.07,7.9-8c3.08,4,4.7,7.75,4,10L36.11,28.19z"/>
<path class="st1" d="M44.91,4.86H49v22.46h11.67V31H44.91V4.86z"/>
<linearGradient id="SVGID_2_" gradientUnits="userSpaceOnUse" x1="54.53" y1="24.405" x2="80.6774" y2="24.405" gradientTransform="matrix(1 0 0 1 0 -6.5)">
	<stop  offset="0" style="stop-color:#E42689"/>
	<stop  offset="1" style="stop-color:#FCB62A"/>
</linearGradient>
<path class="st2" d="M68,29.82c-1.97-1.11-3.58-2.76-4.64-4.76c-1.16-2.2-1.75-4.65-1.69-7.14c-0.05-2.49,0.53-4.95,1.69-7.15
	c1.06-2,2.67-3.65,4.64-4.77c4.21-2.24,9.27-2.24,13.48,0c1.97,1.11,3.57,2.76,4.64,4.75c1.16,2.2,1.74,4.66,1.69,7.15
	c0.06,2.49-0.53,4.94-1.69,7.14c-1.06,2-2.67,3.65-4.64,4.76C77.27,32.05,72.22,32.05,68,29.82z M79.44,26.3
	c1.3-0.83,2.32-2.03,2.94-3.44c0.68-1.56,1.03-3.24,1-4.94c0.03-1.7-0.32-3.38-1-4.94c-0.61-1.43-1.64-2.64-2.94-3.48
	c-2.95-1.67-6.55-1.67-9.5,0c-1.32,0.83-2.36,2.02-3,3.44c-0.69,1.55-1.03,3.24-1,4.94c-0.03,1.7,0.31,3.39,1,4.94
	c0.64,1.42,1.68,2.61,3,3.44c2.95,1.65,6.55,1.65,9.5,0V26.3z"/>
<path class="st1" d="M92.19,4.86h9.06c2.41-0.14,4.79,0.57,6.74,2c1.61,1.33,2.42,3.33,2.42,6c0.17,3.15-1.67,6.06-4.58,7.27l6,10.9
	H107l-5.27-10h-5.3V31h-4.24V4.86z M100.68,17.5c1.46,0.11,2.91-0.32,4.07-1.21c0.91-0.85,1.4-2.05,1.34-3.29
	c0.1-1.29-0.38-2.56-1.32-3.45c-1.15-0.86-2.57-1.28-4-1.17h-4.34v9.12H100.68z"/>
<linearGradient id="SVGID_3_" gradientUnits="userSpaceOnUse" x1="105.89" y1="24.41" x2="132.0373" y2="24.41" gradientTransform="matrix(1 0 0 1 0 -6.5)">
	<stop  offset="0" style="stop-color:#E42689"/>
	<stop  offset="1" style="stop-color:#FCB62A"/>
</linearGradient>
<path class="st3" d="M120.19,29.82c-1.97-1.11-3.58-2.76-4.64-4.76c-1.16-2.2-1.75-4.65-1.69-7.14c-0.06-2.49,0.53-4.95,1.69-7.15
	c1.06-2,2.67-3.66,4.64-4.77c4.21-2.24,9.27-2.24,13.48,0c1.96,1.12,3.57,2.76,4.64,4.75c1.16,2.21,1.74,4.68,1.69,7.17
	c0.05,2.48-0.53,4.94-1.69,7.14c-1.06,2-2.67,3.65-4.64,4.76C129.46,32.06,124.4,32.06,120.19,29.82z M131.68,26.3
	c1.3-0.83,2.32-2.03,2.94-3.44c0.68-1.56,1.02-3.24,1-4.94c0.02-1.7-0.32-3.38-1-4.94c-0.61-1.43-1.64-2.64-2.94-3.48
	c-2.95-1.67-6.55-1.67-9.5,0c-1.32,0.83-2.36,2.02-3,3.44c-0.69,1.55-1.03,3.24-1,4.94c-0.03,1.7,0.31,3.39,1,4.94
	c0.64,1.42,1.68,2.61,3,3.44c2.95,1.65,6.55,1.65,9.5,0V26.3z"/>
</svg>
