<svg id="Layer_1" data-name="Layer 1" xmlns="http://www.w3.org/2000/svg" xmlns:xlink="http://www.w3.org/1999/xlink" viewBox="0 0 130 45"><defs><style>.cls-1{fill:url(#linear-gradient);}.cls-2{fill:url(#linear-gradient-2);}.cls-3{fill:url(#linear-gradient-3);}.cls-4{fill:url(#linear-gradient-4);}.cls-5{fill:#231f20;}</style><linearGradient id="linear-gradient" x1="33.48" y1="21.15" x2="45.92" y2="5.03" gradientTransform="matrix(1, 0, 0, -1, -3.66, 45.26)" gradientUnits="userSpaceOnUse"><stop offset="0" stop-color="#f05b26"/><stop offset="1" stop-color="#fce863"/></linearGradient><linearGradient id="linear-gradient-2" x1="19.36" y1="32.63" x2="1.01" y2="4.86" gradientTransform="matrix(1, 0, 0, -1, -3.66, 45.26)" gradientUnits="userSpaceOnUse"><stop offset="0" stop-color="#008dbc"/><stop offset="1" stop-color="#90b7e0"/></linearGradient><linearGradient id="linear-gradient-3" x1="13.11" y1="33.45" x2="45.95" y2="33.45" gradientTransform="matrix(1, 0, 0, -1, -3.66, 45.26)" gradientUnits="userSpaceOnUse"><stop offset="0" stop-color="#c1272d"/><stop offset="1" stop-color="#ed3452"/></linearGradient><linearGradient id="linear-gradient-4" x1="29.74" y1="19.42" x2="18.37" y2="-9" gradientTransform="matrix(1, 0, 0, -1, -3.66, 45.26)" gradientUnits="userSpaceOnUse"><stop offset="0" stop-color="#02949d"/><stop offset="1" stop-color="#74c7b1"/></linearGradient></defs><path class="cls-1" d="M30.27,21.54h-.82c.16.33.31.66.46,1A27.86,27.86,0,0,1,32.33,34a27.46,27.46,0,0,1-.63,6l8-4.41a5.3,5.3,0,0,0,2.57-4.21V26.85A16.08,16.08,0,0,0,30.27,21.54Z" transform="translate(0.13 -0.01)"/><path class="cls-2" d="M10,31a4.28,4.28,0,0,1,4.4-4.18h0a4.1,4.1,0,0,1,.78.06,17.72,17.72,0,0,1,2.24-2.57,18.22,18.22,0,0,1,7.13-4.2,27.57,27.57,0,0,0-19.81-12L2.41,9.45A5.32,5.32,0,0,0-.13,13.63V31.36a5.32,5.32,0,0,0,2.54,4.18l10.38,5.7a16.51,16.51,0,0,1-.68-4.68,15,15,0,0,1,.12-1.9A4.17,4.17,0,0,1,10,31Z" transform="translate(0.13 -0.01)"/><path class="cls-3" d="M39.75,9.45,23.62.59a5.85,5.85,0,0,0-5.07,0l-9.1,5a31.87,31.87,0,0,1,4,1.32,30.93,30.93,0,0,1,9.82,6.29,30.09,30.09,0,0,1,5,6.18q1-.11,2-.12a18.62,18.62,0,0,1,12,4.34v-10A5.31,5.31,0,0,0,39.75,9.45Z" transform="translate(0.13 -0.01)"/><path class="cls-4" d="M17.37,27.92A4.14,4.14,0,0,1,18.81,31a4.29,4.29,0,0,1-4.26,4.22c0,.44-.06.89-.06,1.34A14.43,14.43,0,0,0,16,43.06l2.52,1.38a5.83,5.83,0,0,0,5.06,0l3.7-2a24.8,24.8,0,0,0-1.55-20.28A15.77,15.77,0,0,0,17.37,27.92Z" transform="translate(0.13 -0.01)"/><path class="cls-5" d="M65.58,22A1.22,1.22,0,0,1,66,23v4.39a4.64,4.64,0,0,1-.15,1.39,1.56,1.56,0,0,1-.53.78,3.15,3.15,0,0,1-1.14.5,13.73,13.73,0,0,1-2.12.43,16.89,16.89,0,0,1-2.25.15,9.82,9.82,0,0,1-4.58-1,7,7,0,0,1-3-2.8,8.82,8.82,0,0,1-1-4.36,8.85,8.85,0,0,1,1-4.31,7,7,0,0,1,3-2.81,9.62,9.62,0,0,1,4.47-1A8.71,8.71,0,0,1,65,16a1.73,1.73,0,0,1,.5.54,1.39,1.39,0,0,1,.14.67,1.5,1.5,0,0,1-.35,1,1,1,0,0,1-.81.41,1.3,1.3,0,0,1-.55-.09,2.89,2.89,0,0,1-.63-.26,8.13,8.13,0,0,0-1.83-.82,5.89,5.89,0,0,0-1.82-.25q-4.81,0-4.82,5.32a5.85,5.85,0,0,0,1.25,4.1A4.94,4.94,0,0,0,59.91,28a10.4,10.4,0,0,0,2.72-.34v-3.5H60.49a1.61,1.61,0,0,1-1.06-.32,1.25,1.25,0,0,1,0-1.78l0,0a1.61,1.61,0,0,1,1.06-.32h4A1.52,1.52,0,0,1,65.58,22Z" transform="translate(0.13 -0.01)"/><path class="cls-5" d="M70.83,28.9a6.55,6.55,0,0,1-1.83-5V16.22A1.65,1.65,0,0,1,69.49,15a1.8,1.8,0,0,1,1.32-.47,1.74,1.74,0,0,1,1.31.47,1.66,1.66,0,0,1,.5,1.26v7.85a4.08,4.08,0,0,0,.9,2.88,4,4,0,0,0,5.29,0,4.1,4.1,0,0,0,.92-2.87V16.19a1.68,1.68,0,0,1,.48-1.26,1.77,1.77,0,0,1,1.31-.47,1.8,1.8,0,0,1,1.33.47,1.66,1.66,0,0,1,.53,1.26v7.69a6.53,6.53,0,0,1-1.85,5,7.45,7.45,0,0,1-5.34,1.73A7.41,7.41,0,0,1,70.83,28.9Z" transform="translate(0.13 -0.01)"/><path class="cls-5" d="M89.09,30.25a7.44,7.44,0,0,1-2.63-1.18,1.62,1.62,0,0,1-.51-.53,1.56,1.56,0,0,1-.15-.71,1.44,1.44,0,0,1,.36-1,1,1,0,0,1,.84-.43,1.82,1.82,0,0,1,.52.08,2.73,2.73,0,0,1,.6.28,8.12,8.12,0,0,0,2,.88,8.48,8.48,0,0,0,2.3.28,4.68,4.68,0,0,0,2.38-.49A1.58,1.58,0,0,0,95.63,26a1.28,1.28,0,0,0-.77-1.13,10.42,10.42,0,0,0-2.74-.81,15.22,15.22,0,0,1-3.5-1,4.42,4.42,0,0,1-1.92-1.5,3.91,3.91,0,0,1-.6-2.19A4.16,4.16,0,0,1,87,16.86,5.68,5.68,0,0,1,89.39,15a8.84,8.84,0,0,1,3.45-.64A9.06,9.06,0,0,1,98.41,16a1.68,1.68,0,0,1,.51.55,1.57,1.57,0,0,1-.21,1.67,1,1,0,0,1-.84.43,1.27,1.27,0,0,1-.48-.07,2.85,2.85,0,0,1-.64-.29A10.48,10.48,0,0,0,95,17.39a6.26,6.26,0,0,0-2.06-.29,4.19,4.19,0,0,0-2.28.52,1.64,1.64,0,0,0-.82,1.45,1.25,1.25,0,0,0,.32.89,2.59,2.59,0,0,0,1.06.62,15.38,15.38,0,0,0,2.12.56,12.24,12.24,0,0,1,4.62,1.74,3.41,3.41,0,0,1,1.4,2.9,4.13,4.13,0,0,1-.83,2.53A5.41,5.41,0,0,1,96.13,30a9.47,9.47,0,0,1-3.53.6A13.84,13.84,0,0,1,89.09,30.25Z" transform="translate(0.13 -0.01)"/><path class="cls-5" d="M105.94,30.06a1.6,1.6,0,0,1-.5-1.26V17.43H101.6q-1.74,0-1.74-1.44c0-1,.58-1.42,1.74-1.42H113c1.16,0,1.74.47,1.74,1.42s-.58,1.44-1.74,1.44h-3.84V28.8a1.65,1.65,0,0,1-.49,1.26A2.15,2.15,0,0,1,105.94,30.06Z" transform="translate(0.13 -0.01)"/><path class="cls-5" d="M129.87,29a1.32,1.32,0,0,1-.53,1.07,1.86,1.86,0,0,1-1.21.44,1.64,1.64,0,0,1-.86-.24,1.51,1.51,0,0,1-.62-.7l-1.25-2.65h-8l-1.25,2.65a1.46,1.46,0,0,1-.6.7,1.64,1.64,0,0,1-.86.24,1.89,1.89,0,0,1-1.23-.44A1.32,1.32,0,0,1,112.9,29a1.55,1.55,0,0,1,.19-.72l6.36-12.74a1.82,1.82,0,0,1,.78-.82,2.27,2.27,0,0,1,1.11-.29,2.19,2.19,0,0,1,1.14.3,2,2,0,0,1,.81.81l6.39,12.71A1.67,1.67,0,0,1,129.87,29Zm-11.22-4.74h5.5l-2.7-5.85Z" transform="translate(0.13 -0.01)"/></svg>